<mxfile host="app.diagrams.net" modified="2023-06-04T15:19:21.287Z" agent="Mozilla/5.0 (Windows NT 10.0; Win64; x64) AppleWebKit/537.36 (KHTML, like Gecko) Chrome/113.0.0.0 Safari/537.36" etag="gk1GoIWgK0kj4cBbyjZo" version="21.3.7" type="github">
  <diagram name="Roadmap" id="74e2e168-ea6b-b213-b513-2b3c1d86103e">
    <mxGraphModel dx="1444" dy="925" grid="1" gridSize="10" guides="1" tooltips="1" connect="1" arrows="1" fold="1" page="1" pageScale="1" pageWidth="1100" pageHeight="850" background="none" math="0" shadow="0">
      <root>
        <mxCell id="0" />
        <mxCell id="1" parent="0" />
        <mxCell id="NTD_w7OnmmbaVp7g4xW4-17" value="Roadmap" style="swimlane;childLayout=stackLayout;resizeParent=1;resizeParentMax=0;startSize=20;html=1;" vertex="1" parent="1">
          <mxGeometry x="90" y="70" width="1110" height="950" as="geometry" />
        </mxCell>
        <mxCell id="NTD_w7OnmmbaVp7g4xW4-18" value="数学" style="swimlane;startSize=20;html=1;" vertex="1" parent="NTD_w7OnmmbaVp7g4xW4-17">
          <mxGeometry y="20" width="410" height="930" as="geometry" />
        </mxCell>
        <mxCell id="NTD_w7OnmmbaVp7g4xW4-21" value="" style="swimlane;childLayout=stackLayout;resizeParent=1;resizeParentMax=0;startSize=0;html=1;" vertex="1" parent="NTD_w7OnmmbaVp7g4xW4-18">
          <mxGeometry y="20" width="410" height="910" as="geometry">
            <mxRectangle x="4.547473508864641e-13" y="20" width="80" height="30" as="alternateBounds" />
          </mxGeometry>
        </mxCell>
        <mxCell id="NTD_w7OnmmbaVp7g4xW4-22" value="分析学" style="swimlane;startSize=20;html=1;" vertex="1" parent="NTD_w7OnmmbaVp7g4xW4-21">
          <mxGeometry width="140" height="910" as="geometry" />
        </mxCell>
        <mxCell id="NTD_w7OnmmbaVp7g4xW4-25" value="实分析" style="rounded=1;whiteSpace=wrap;html=1;" vertex="1" parent="NTD_w7OnmmbaVp7g4xW4-22">
          <mxGeometry x="10" y="50" width="120" height="60" as="geometry" />
        </mxCell>
        <mxCell id="NTD_w7OnmmbaVp7g4xW4-26" value="复分析" style="rounded=1;whiteSpace=wrap;html=1;" vertex="1" parent="NTD_w7OnmmbaVp7g4xW4-22">
          <mxGeometry x="10" y="140" width="120" height="60" as="geometry" />
        </mxCell>
        <mxCell id="NTD_w7OnmmbaVp7g4xW4-27" value="泛函分析" style="rounded=1;whiteSpace=wrap;html=1;" vertex="1" parent="NTD_w7OnmmbaVp7g4xW4-22">
          <mxGeometry x="5" y="240" width="120" height="60" as="geometry" />
        </mxCell>
        <mxCell id="NTD_w7OnmmbaVp7g4xW4-28" value="张量分析" style="rounded=1;whiteSpace=wrap;html=1;" vertex="1" parent="NTD_w7OnmmbaVp7g4xW4-22">
          <mxGeometry x="10" y="350" width="120" height="60" as="geometry" />
        </mxCell>
        <mxCell id="NTD_w7OnmmbaVp7g4xW4-23" value="代数" style="swimlane;startSize=20;html=1;" vertex="1" parent="NTD_w7OnmmbaVp7g4xW4-21">
          <mxGeometry x="140" width="130" height="910" as="geometry" />
        </mxCell>
        <mxCell id="NTD_w7OnmmbaVp7g4xW4-31" value="高等代数" style="rounded=1;whiteSpace=wrap;html=1;" vertex="1" parent="NTD_w7OnmmbaVp7g4xW4-23">
          <mxGeometry x="5" y="50" width="120" height="60" as="geometry" />
        </mxCell>
        <mxCell id="NTD_w7OnmmbaVp7g4xW4-29" value="微分几何" style="rounded=1;whiteSpace=wrap;html=1;" vertex="1" parent="NTD_w7OnmmbaVp7g4xW4-23">
          <mxGeometry x="5" y="315" width="120" height="60" as="geometry" />
        </mxCell>
        <mxCell id="NTD_w7OnmmbaVp7g4xW4-24" value="纯数学" style="swimlane;startSize=20;html=1;" vertex="1" parent="NTD_w7OnmmbaVp7g4xW4-21">
          <mxGeometry x="270" width="140" height="910" as="geometry" />
        </mxCell>
        <mxCell id="NTD_w7OnmmbaVp7g4xW4-30" value="抽象代数" style="rounded=1;whiteSpace=wrap;html=1;" vertex="1" parent="NTD_w7OnmmbaVp7g4xW4-24">
          <mxGeometry x="10" y="50" width="120" height="60" as="geometry" />
        </mxCell>
        <mxCell id="NTD_w7OnmmbaVp7g4xW4-32" value="拓扑" style="rounded=1;whiteSpace=wrap;html=1;" vertex="1" parent="NTD_w7OnmmbaVp7g4xW4-24">
          <mxGeometry x="10" y="140" width="120" height="60" as="geometry" />
        </mxCell>
        <mxCell id="NTD_w7OnmmbaVp7g4xW4-33" value="范畴论" style="rounded=1;whiteSpace=wrap;html=1;" vertex="1" parent="NTD_w7OnmmbaVp7g4xW4-24">
          <mxGeometry x="5" y="240" width="120" height="60" as="geometry" />
        </mxCell>
        <mxCell id="NTD_w7OnmmbaVp7g4xW4-35" value="代数几何" style="rounded=1;whiteSpace=wrap;html=1;" vertex="1" parent="NTD_w7OnmmbaVp7g4xW4-24">
          <mxGeometry x="5" y="315" width="120" height="60" as="geometry" />
        </mxCell>
        <mxCell id="NTD_w7OnmmbaVp7g4xW4-34" value="同调类型论HoTT" style="rounded=1;whiteSpace=wrap;html=1;" vertex="1" parent="NTD_w7OnmmbaVp7g4xW4-24">
          <mxGeometry x="10" y="440" width="120" height="60" as="geometry" />
        </mxCell>
        <mxCell id="NTD_w7OnmmbaVp7g4xW4-19" value="物理" style="swimlane;startSize=20;html=1;" vertex="1" parent="NTD_w7OnmmbaVp7g4xW4-17">
          <mxGeometry x="410" y="20" width="280" height="930" as="geometry" />
        </mxCell>
        <mxCell id="NTD_w7OnmmbaVp7g4xW4-45" value="" style="swimlane;childLayout=stackLayout;resizeParent=1;resizeParentMax=0;startSize=0;html=1;" vertex="1" parent="NTD_w7OnmmbaVp7g4xW4-19">
          <mxGeometry y="20" width="280" height="910" as="geometry" />
        </mxCell>
        <mxCell id="NTD_w7OnmmbaVp7g4xW4-46" value="理论物理" style="swimlane;startSize=20;html=1;" vertex="1" parent="NTD_w7OnmmbaVp7g4xW4-45">
          <mxGeometry width="150" height="910" as="geometry" />
        </mxCell>
        <mxCell id="NTD_w7OnmmbaVp7g4xW4-51" value="理论力学" style="rounded=1;whiteSpace=wrap;html=1;" vertex="1" parent="NTD_w7OnmmbaVp7g4xW4-46">
          <mxGeometry x="15" y="50" width="120" height="60" as="geometry" />
        </mxCell>
        <mxCell id="NTD_w7OnmmbaVp7g4xW4-52" value="场论" style="rounded=1;whiteSpace=wrap;html=1;" vertex="1" parent="NTD_w7OnmmbaVp7g4xW4-46">
          <mxGeometry x="15" y="140" width="120" height="60" as="geometry" />
        </mxCell>
        <mxCell id="NTD_w7OnmmbaVp7g4xW4-53" value="相对论" style="rounded=1;whiteSpace=wrap;html=1;" vertex="1" parent="NTD_w7OnmmbaVp7g4xW4-46">
          <mxGeometry x="15" y="315" width="120" height="60" as="geometry" />
        </mxCell>
        <mxCell id="NTD_w7OnmmbaVp7g4xW4-54" value="量子电动力学" style="rounded=1;whiteSpace=wrap;html=1;" vertex="1" parent="NTD_w7OnmmbaVp7g4xW4-46">
          <mxGeometry x="15" y="470" width="120" height="60" as="geometry" />
        </mxCell>
        <mxCell id="NTD_w7OnmmbaVp7g4xW4-55" value="量子场论" style="rounded=1;whiteSpace=wrap;html=1;fillColor=#ffe6cc;strokeColor=#d79b00;" vertex="1" parent="NTD_w7OnmmbaVp7g4xW4-46">
          <mxGeometry x="15" y="730" width="120" height="60" as="geometry" />
        </mxCell>
        <mxCell id="NTD_w7OnmmbaVp7g4xW4-56" value="统计力学" style="rounded=1;whiteSpace=wrap;html=1;" vertex="1" parent="NTD_w7OnmmbaVp7g4xW4-46">
          <mxGeometry x="10" y="230" width="120" height="60" as="geometry" />
        </mxCell>
        <mxCell id="NTD_w7OnmmbaVp7g4xW4-58" value="凝聚态物理" style="rounded=1;whiteSpace=wrap;html=1;" vertex="1" parent="NTD_w7OnmmbaVp7g4xW4-46">
          <mxGeometry x="15" y="390" width="120" height="60" as="geometry" />
        </mxCell>
        <mxCell id="NTD_w7OnmmbaVp7g4xW4-47" value="应用物理" style="swimlane;startSize=20;html=1;" vertex="1" parent="NTD_w7OnmmbaVp7g4xW4-45">
          <mxGeometry x="150" width="130" height="910" as="geometry" />
        </mxCell>
        <mxCell id="NTD_w7OnmmbaVp7g4xW4-61" value="模拟电路" style="rounded=1;whiteSpace=wrap;html=1;" vertex="1" parent="NTD_w7OnmmbaVp7g4xW4-47">
          <mxGeometry x="10" y="60" width="120" height="60" as="geometry" />
        </mxCell>
        <mxCell id="NTD_w7OnmmbaVp7g4xW4-62" value="数字电路" style="rounded=1;whiteSpace=wrap;html=1;" vertex="1" parent="NTD_w7OnmmbaVp7g4xW4-47">
          <mxGeometry x="10" y="150" width="120" height="60" as="geometry" />
        </mxCell>
        <mxCell id="NTD_w7OnmmbaVp7g4xW4-20" value="计算" style="swimlane;startSize=20;html=1;" vertex="1" parent="NTD_w7OnmmbaVp7g4xW4-17">
          <mxGeometry x="690" y="20" width="420" height="930" as="geometry" />
        </mxCell>
        <mxCell id="NTD_w7OnmmbaVp7g4xW4-36" value="" style="swimlane;childLayout=stackLayout;resizeParent=1;resizeParentMax=0;startSize=0;html=1;" vertex="1" parent="NTD_w7OnmmbaVp7g4xW4-20">
          <mxGeometry x="4.547473508864641e-13" y="20" width="419.99999999999955" height="910" as="geometry" />
        </mxCell>
        <mxCell id="NTD_w7OnmmbaVp7g4xW4-37" value="离散数学" style="swimlane;startSize=20;html=1;" vertex="1" parent="NTD_w7OnmmbaVp7g4xW4-36">
          <mxGeometry width="139.99999999999955" height="910" as="geometry" />
        </mxCell>
        <mxCell id="NTD_w7OnmmbaVp7g4xW4-40" value="组合数学" style="rounded=1;whiteSpace=wrap;html=1;" vertex="1" parent="NTD_w7OnmmbaVp7g4xW4-37">
          <mxGeometry x="9.999999999999545" y="40" width="120" height="60" as="geometry" />
        </mxCell>
        <mxCell id="NTD_w7OnmmbaVp7g4xW4-41" value="初等数论" style="rounded=1;whiteSpace=wrap;html=1;" vertex="1" parent="NTD_w7OnmmbaVp7g4xW4-37">
          <mxGeometry x="9.999999999999545" y="140" width="120" height="60" as="geometry" />
        </mxCell>
        <mxCell id="NTD_w7OnmmbaVp7g4xW4-42" value="代数数论" style="rounded=1;whiteSpace=wrap;html=1;" vertex="1" parent="NTD_w7OnmmbaVp7g4xW4-37">
          <mxGeometry x="9.999999999999545" y="255" width="120" height="60" as="geometry" />
        </mxCell>
        <mxCell id="NTD_w7OnmmbaVp7g4xW4-38" value="程序设计" style="swimlane;startSize=20;html=1;" vertex="1" parent="NTD_w7OnmmbaVp7g4xW4-36">
          <mxGeometry x="139.99999999999955" width="140" height="910" as="geometry" />
        </mxCell>
        <mxCell id="NTD_w7OnmmbaVp7g4xW4-59" value="Julia Language" style="rounded=1;whiteSpace=wrap;html=1;" vertex="1" parent="NTD_w7OnmmbaVp7g4xW4-38">
          <mxGeometry x="10" y="40" width="120" height="60" as="geometry" />
        </mxCell>
        <mxCell id="NTD_w7OnmmbaVp7g4xW4-60" value="Lean Prover" style="rounded=1;whiteSpace=wrap;html=1;" vertex="1" parent="NTD_w7OnmmbaVp7g4xW4-38">
          <mxGeometry x="10" y="140" width="120" height="60" as="geometry" />
        </mxCell>
        <mxCell id="NTD_w7OnmmbaVp7g4xW4-39" value="量子计算" style="swimlane;startSize=20;html=1;" vertex="1" parent="NTD_w7OnmmbaVp7g4xW4-36">
          <mxGeometry x="279.99999999999955" width="140" height="910" as="geometry" />
        </mxCell>
        <mxCell id="NTD_w7OnmmbaVp7g4xW4-43" value="操作系统" style="rounded=1;whiteSpace=wrap;html=1;" vertex="1" parent="NTD_w7OnmmbaVp7g4xW4-39">
          <mxGeometry x="10" y="50" width="120" height="60" as="geometry" />
        </mxCell>
        <mxCell id="NTD_w7OnmmbaVp7g4xW4-44" value="微机" style="rounded=1;whiteSpace=wrap;html=1;" vertex="1" parent="NTD_w7OnmmbaVp7g4xW4-39">
          <mxGeometry x="10" y="160" width="120" height="60" as="geometry" />
        </mxCell>
      </root>
    </mxGraphModel>
  </diagram>
</mxfile>
